<svg xmlns="http://www.w3.org/2000/svg" viewBox="0 0 32 32" role="img" aria-label="Google Maps">
  <circle cx="16" cy="16" r="15" fill="#e8f5e9"/>
  <path fill="#34a853" d="M16 4.8a9 9 0 0 0-9 9c0 6.7 9 13.4 9 13.4s9-6.7 9-13.4a9 9 0 0 0-9-9z"/>
  <circle cx="16" cy="13.9" r="3.4" fill="#fff"/>
  <path fill="#4285f4" d="M16 7.1a6.7 6.7 0 0 1 6.7 6.7c0 2.3-1.8 5.1-3.7 7.4L16 13.9V7.1z" opacity=".8"/>
  <path fill="#fbbc04" d="M16 13.9l-3 7.3c-1.9-2.3-3.7-5.1-3.7-7.4A6.7 6.7 0 0 1 16 7.1v6.8z" opacity=".9"/>
</svg>
