<svg xmlns="http://www.w3.org/2000/svg" viewBox="0 0 32 32" role="img" aria-label="Google">
  <circle cx="16" cy="16" r="15" fill="#fff" stroke="#dadce0" stroke-width="1.5"/>
  <path fill="#4285f4" d="M25.4 16.3c0-.7-.1-1.3-.2-1.9H16v3.7h5.3c-.2 1.2-.9 2.2-1.9 2.9v2.4h3.1c1.8-1.7 2.9-4.1 2.9-7.1z"/>
  <path fill="#34a853" d="M16 26c2.6 0 4.8-.9 6.4-2.4l-3.1-2.4c-.9.6-2 .9-3.3.9-2.5 0-4.6-1.7-5.4-3.9H7.4v2.5C9 23.8 12.2 26 16 26z"/>
  <path fill="#fbbc04" d="M10.6 18.2c-.2-.6-.3-1.2-.3-1.9s.1-1.3.3-1.9v-2.5H7.4c-.7 1.3-1 2.8-1 4.4s.4 3.1 1 4.4l3.2-2.5z"/>
  <path fill="#ea4335" d="M16 10.5c1.4 0 2.7.5 3.7 1.5l2.8-2.8C20.8 7.6 18.6 6.7 16 6.7c-3.8 0-7 2.2-8.6 5.3l3.2 2.5c.8-2.3 2.9-4 5.4-4z"/>
</svg>
